<?xml version="1.0" encoding="utf-8"?>
<!-- Generator: Adobe Illustrator 22.0.0, SVG Export Plug-In . SVG Version: 6.00 Build 0)  -->
<svg version="1.1" id="Layer_1" xmlns="http://www.w3.org/2000/svg" xmlns:xlink="http://www.w3.org/1999/xlink" x="0px" y="0px"
	 viewBox="0 0 45.7 58.5" style="enable-background:new 0 0 45.7 58.5;" xml:space="preserve">
<style type="text/css">
	.st0{display:none;}
	.st1{display:inline;}
	.st2{fill:#13231D;}
	.st3{display:inline;fill:#13231D;}
	.st4{display:inline;fill:#F2CC53;}
	.st5{display:inline;fill:#FFFFFF;stroke:#0E1110;stroke-miterlimit:10;}
	.st6{display:inline;fill:#4BC6E2;stroke:#F0F2F2;stroke-miterlimit:10;}
	.st7{fill:#EADD42;}
	.st8{fill:#EAEAEA;}
	.st9{fill:#010A0C;}
	.st10{fill:#FFFFFF;stroke:#010A0C;stroke-width:2;stroke-miterlimit:10;}
</style>
<title>taxi</title>
<g class="st0">
	<g class="st1">
		<path class="st2" d="M-62.5,77.9L-62.5,77.9c-1.8,0-3.2-1.4-3.2-3.2v-4.1c0-1.8,1.4-3.2,3.2-3.2h0c1.8,0,3.2,1.4,3.2,3.2v4.1
			C-59.3,76.4-60.7,77.9-62.5,77.9z"/>
		<path class="st2" d="M-30.5,77.9L-30.5,77.9c-1.8,0-3.2-1.4-3.2-3.2v-4.1c0-1.8,1.4-3.2,3.2-3.2h0c1.8,0,3.2,1.4,3.2,3.2v4.1
			C-27.3,76.4-28.7,77.9-30.5,77.9z"/>
	</g>
	<path class="st3" d="M-43.2,43.8h-5.2c-2.4,0-4.4-2-4.4-4.4v0c0-2.4,2-4.4,4.4-4.4h5.2c2.4,0,4.4,2,4.4,4.4v0
		C-38.8,41.8-40.8,43.8-43.2,43.8z"/>
	<path class="st4" d="M-20.7,56.3H-26l-4-12.1c-0.1-2-1.5-3.4-3.1-3.3h-27.1c-1.6-0.1-3,1.4-3.1,3.3l-2.8,12.1h-4.5
		c-1.8,0-3.2,1.7-3.2,3.8V69c0,2.1,1.4,3.8,3.2,3.8h50c1.8,0,3.2-1.7,3.2-3.8v-8.9C-17.5,58-19,56.3-20.7,56.3z"/>
	<circle class="st5" cx="-60.7" cy="65.2" r="3.6"/>
	<circle class="st5" cx="-31.7" cy="65.2" r="3.6"/>
	<path class="st6" d="M-36.1,55.9l-20.5-0.1c-1.5,0-4.6,0.8-4.6-0.7l1.6-8c0-1.5,1.2-2.7,2.7-2.7h20.8c1.5,0,2.7,1.2,2.7,2.7l1.9,8
		C-31.6,56.5-34.7,55.9-36.1,55.9z"/>
</g>
<g>
	<g>
		<path class="st7" d="M22.9,2.8c-10.7,0-19.4,8.7-19.4,19.4c0,8.6,5.6,15.9,13.4,18.4l0.3,7.9l3.4-7.1c0.7,0.1,1.5,0.1,2.3,0.1
			c10.7,0,19.4-8.7,19.4-19.4S33.6,2.8,22.9,2.8z"/>
		<path class="st8" d="M15.1,58.3l-0.6-16C6.4,39,1.1,31.1,1.1,22.2c0-12,9.8-21.8,21.8-21.8c12,0,21.8,9.8,21.8,21.8
			c0,12-9.8,21.8-21.8,21.8c-0.3,0-0.5,0-0.8,0L15.1,58.3z M19.2,38.8l1.7,0.2c0.7,0.1,1.4,0.1,2,0.1c9.4,0,17-7.6,17-17
			c0-9.4-7.6-17-17-17s-17,7.6-17,17c0,7.4,4.7,13.9,11.7,16.1L19.2,38.8z"/>
	</g>
	<g>
		<path class="st7" d="M22.9,2.8c-10.7,0-19.4,8.7-19.4,19.4c0,8.6,5.6,15.9,13.4,18.4l0.3,7.9l3.4-7.1c0.7,0.1,1.5,0.1,2.3,0.1
			c10.7,0,19.4-8.7,19.4-19.4S33.6,2.8,22.9,2.8z"/>
		<path class="st9" d="M15.9,54.4l-0.5-12.7C7.4,38.6,2.1,30.9,2.1,22.2c0-11.5,9.3-20.8,20.8-20.8s20.8,9.3,20.8,20.8
			S34.4,43,22.9,43c-0.4,0-0.9,0-1.4-0.1L15.9,54.4z M22.9,4.2c-9.9,0-17.9,8-17.9,17.9c0,7.8,5,14.6,12.4,17.1l1,0.3l0.1,3.1
			l1.4-2.8l1,0.1c0.8,0.1,1.4,0.1,2.1,0.1c9.9,0,17.9-8,17.9-17.9S32.8,4.2,22.9,4.2z"/>
	</g>
	<g>
		<path d="M20.9,10.5c0.6,0,1,0.2,1.4,0.6c0.4,0.4,0.6,0.9,0.6,1.4s-0.2,1-0.6,1.4c-0.4,0.4-0.9,0.6-1.4,0.6h-0.3v3.2
			c0,0.6-0.2,1-0.6,1.4c-0.4,0.4-0.9,0.6-1.4,0.6c-0.6,0-1-0.2-1.4-0.6c-0.4-0.4-0.6-0.9-0.6-1.4v-3.2h-0.3c-0.6,0-1-0.2-1.4-0.6
			c-0.4-0.4-0.6-0.9-0.6-1.4c0-0.6,0.2-1,0.6-1.4c0.4-0.4,0.9-0.6,1.4-0.6H20.9z M20.9,10.8c0.5,0,0.9,0.2,1.2,0.5
			c0.3,0.3,0.5,0.7,0.5,1.2c0,0.5-0.2,0.9-0.5,1.2c-0.3,0.3-0.7,0.5-1.2,0.5h-0.6v3.5c0,0.5-0.2,0.9-0.5,1.2
			c-0.3,0.3-0.7,0.5-1.2,0.5c-0.5,0-0.9-0.2-1.2-0.5c-0.3-0.3-0.5-0.7-0.5-1.2v-3.5h-0.6c-0.5,0-0.9-0.2-1.2-0.5
			c-0.3-0.3-0.5-0.7-0.5-1.2c0-0.5,0.2-0.9,0.5-1.2s0.7-0.5,1.2-0.5H20.9z M20.9,10.9c0.4,0,0.8,0.2,1.1,0.5
			c0.3,0.3,0.5,0.7,0.5,1.1s-0.2,0.8-0.5,1.1c-0.3,0.3-0.7,0.5-1.1,0.5h-0.7v3.6c0,0.4-0.2,0.8-0.5,1.1c-0.3,0.3-0.7,0.5-1.1,0.5
			c-0.4,0-0.8-0.2-1.1-0.5c-0.3-0.3-0.5-0.7-0.5-1.1v-3.6h-0.7c-0.4,0-0.8-0.2-1.1-0.5c-0.3-0.3-0.5-0.7-0.5-1.1s0.2-0.8,0.5-1.1
			c0.3-0.3,0.7-0.5,1.1-0.5H20.9z M15.4,13.4c0.3,0.3,0.6,0.4,0.9,0.4h0.9v3.9c0,0.4,0.1,0.7,0.4,0.9c0.3,0.3,0.6,0.4,0.9,0.4
			c0.4,0,0.7-0.1,1-0.4c0.3-0.3,0.4-0.6,0.4-1v-3.9h0.9c0.4,0,0.7-0.1,1-0.4c0.3-0.3,0.4-0.6,0.4-1c0-0.4-0.1-0.7-0.4-1
			c-0.3-0.3-0.6-0.4-1-0.4h-4.6c-0.4,0-0.7,0.1-0.9,0.4c-0.3,0.3-0.4,0.6-0.4,0.9C15,12.9,15.1,13.2,15.4,13.4z M21.8,11.6
			c-0.2-0.2-0.5-0.4-0.9-0.4h-4.6c-0.4,0-0.7,0.1-0.9,0.4c-0.2,0.2-0.4,0.5-0.4,0.9s0.1,0.7,0.4,0.9s0.5,0.4,0.9,0.4h1v3.9
			c0,0.4,0.1,0.7,0.4,0.9c0.2,0.2,0.5,0.4,0.9,0.4c0.4,0,0.7-0.1,0.9-0.4c0.2-0.2,0.4-0.5,0.4-0.9v-3.9h1c0.4,0,0.7-0.1,0.9-0.4
			c0.2-0.2,0.4-0.5,0.4-0.9S22,11.8,21.8,11.6z M20.9,11.3c0.3,0,0.6,0.1,0.9,0.3c0.2,0.2,0.4,0.5,0.4,0.9c0,0.3-0.1,0.6-0.4,0.9
			c-0.2,0.2-0.5,0.3-0.9,0.3h-1.1v4c0,0.3-0.1,0.6-0.3,0.9c-0.2,0.2-0.5,0.3-0.9,0.3c-0.3,0-0.6-0.1-0.8-0.4
			c-0.2-0.2-0.3-0.5-0.3-0.8v-4h-1.1c-0.3,0-0.6-0.1-0.9-0.3c-0.2-0.2-0.3-0.5-0.3-0.9c0-0.3,0.1-0.6,0.4-0.8
			c0.2-0.2,0.5-0.4,0.8-0.4H20.9z M15.7,13.1c0.2,0.2,0.4,0.3,0.7,0.3h1.3v4.3c0,0.3,0.1,0.5,0.3,0.7c0.2,0.2,0.4,0.3,0.7,0.3
			c0.3,0,0.5-0.1,0.7-0.3c0.2-0.2,0.3-0.4,0.3-0.7v-4.3h1.3c0.3,0,0.5-0.1,0.7-0.3c0.2-0.2,0.3-0.4,0.3-0.7c0-0.3-0.1-0.5-0.3-0.7
			c-0.2-0.2-0.4-0.3-0.7-0.3h-4.6c-0.3,0-0.5,0.1-0.7,0.3c-0.2,0.2-0.3,0.4-0.3,0.7C15.4,12.7,15.5,13,15.7,13.1z M15.7,13.1
			c0.2,0.2,0.4,0.3,0.6,0.3h1.4v4.3c0,0.2,0.1,0.4,0.2,0.6c0.2,0.2,0.4,0.3,0.6,0.3c0.2,0,0.5-0.1,0.6-0.2c0.2-0.2,0.2-0.4,0.2-0.6
			v-4.3h1.4c0.2,0,0.5-0.1,0.6-0.2c0.2-0.2,0.2-0.4,0.2-0.6s-0.1-0.5-0.2-0.6c-0.2-0.2-0.4-0.2-0.6-0.2h-4.6c-0.2,0-0.4,0.1-0.6,0.3
			c-0.2,0.2-0.3,0.4-0.3,0.6S15.5,12.9,15.7,13.1z M15.9,12.9C16,13,16.2,13,16.3,13h1.8v4.7c0,0.1,0,0.3,0.1,0.4
			c0.1,0.1,0.2,0.2,0.4,0.2c0.2,0,0.3,0,0.4-0.2c0.1-0.1,0.1-0.2,0.1-0.4V13h1.8c0.2,0,0.3,0,0.4-0.2c0.1-0.1,0.1-0.2,0.1-0.4
			s-0.1-0.3-0.1-0.4C21.1,12,21,12,20.9,12h-4.6c-0.1,0-0.3,0.1-0.4,0.2c-0.1,0.1-0.2,0.2-0.2,0.4C15.8,12.6,15.8,12.8,15.9,12.9z"
			/>
		<path d="M27.9,10.5c0.8,0,1.4,0.4,1.8,1.1l2.6,5.2c0.1,0.3,0.2,0.6,0.2,0.9c0,0.8-0.4,1.4-1.1,1.8c-0.3,0.1-0.6,0.2-0.9,0.2
			c-0.8,0-1.4-0.4-1.8-1.1l-0.4-0.9h-0.8l-0.4,0.9c-0.4,0.7-1,1.1-1.8,1.1c-0.3,0-0.6-0.1-0.9-0.2c-0.7-0.4-1.1-1-1.1-1.8
			c0-0.3,0.1-0.6,0.2-0.9l2.6-5.2C26.5,10.8,27.1,10.5,27.9,10.5z M27.9,10.8c0.7,0,1.2,0.3,1.5,0.9l2.6,5.2
			c0.1,0.2,0.2,0.5,0.2,0.7c0,0.7-0.3,1.2-0.9,1.5c-0.2,0.1-0.5,0.2-0.7,0.2c-0.7,0-1.2-0.3-1.5-0.9l-0.5-1h-1.2l-0.5,1
			c-0.3,0.6-0.8,0.9-1.5,0.9c-0.3,0-0.5-0.1-0.7-0.2c-0.6-0.3-0.9-0.8-0.9-1.5c0-0.2,0.1-0.5,0.2-0.7l2.6-5.2
			C26.7,11.1,27.2,10.8,27.9,10.8z M27.9,10.9c0.7,0,1.1,0.3,1.4,0.9L32,17c0.1,0.2,0.2,0.5,0.2,0.7c0,0.7-0.3,1.1-0.9,1.4
			c-0.2,0.1-0.5,0.2-0.7,0.2c-0.7,0-1.1-0.3-1.4-0.9l-0.5-1.1h-1.3l-0.5,1.1c-0.3,0.6-0.8,0.9-1.4,0.9c-0.2,0-0.5-0.1-0.7-0.2
			c-0.6-0.3-0.9-0.8-0.9-1.4c0-0.2,0.1-0.5,0.2-0.7l2.6-5.2C26.8,11.2,27.3,10.9,27.9,10.9z M26.7,11.9l-2.6,5.2
			C24,17.3,24,17.5,24,17.7c0,0.5,0.2,0.9,0.7,1.2c0.2,0.1,0.4,0.1,0.6,0.1c0.5,0,0.9-0.2,1.2-0.7l0.6-1.2h1.6l0.6,1.2
			c0.2,0.5,0.6,0.7,1.2,0.7c0.2,0,0.4,0,0.6-0.1c0.5-0.2,0.7-0.6,0.7-1.2c0-0.2,0-0.4-0.1-0.6l-2.6-5.2c-0.2-0.5-0.6-0.7-1.2-0.7
			C27.4,11.1,27,11.4,26.7,11.9z M31.7,17.1l-2.6-5.2c-0.2-0.5-0.6-0.7-1.1-0.7c-0.5,0-0.9,0.2-1.1,0.7l-2.6,5.2
			c-0.1,0.2-0.1,0.4-0.1,0.6c0,0.5,0.2,0.9,0.7,1.1c0.2,0.1,0.4,0.1,0.6,0.1c0.5,0,0.9-0.2,1.1-0.7l0.6-1.3h1.7l0.6,1.3
			c0.2,0.5,0.6,0.7,1.1,0.7c0.2,0,0.4,0,0.6-0.1c0.5-0.2,0.7-0.6,0.7-1.1C31.8,17.5,31.8,17.3,31.7,17.1z M27.9,11.3
			c0.5,0,0.9,0.2,1.1,0.7l2.6,5.2c0.1,0.2,0.1,0.4,0.1,0.5c0,0.5-0.2,0.9-0.7,1.1c-0.2,0.1-0.3,0.1-0.5,0.1c-0.5,0-0.8-0.2-1.1-0.7
			l-0.7-1.3H27l-0.6,1.3c-0.2,0.4-0.6,0.7-1.1,0.7c-0.2,0-0.4,0-0.5-0.1c-0.4-0.2-0.7-0.6-0.7-1.1c0-0.2,0-0.4,0.1-0.5l2.6-5.2
			C27.1,11.5,27.4,11.3,27.9,11.3z M25.3,18.6c0.4,0,0.7-0.2,0.8-0.5l0.7-1.4H29l0.7,1.4c0.2,0.3,0.5,0.5,0.8,0.5
			c0.1,0,0.3,0,0.4-0.1c0.3-0.2,0.5-0.4,0.5-0.8c0-0.2,0-0.3-0.1-0.4l-2.6-5.2c-0.2-0.3-0.4-0.5-0.8-0.5c-0.4,0-0.7,0.2-0.8,0.5
			l-2.6,5.2c-0.1,0.1-0.1,0.3-0.1,0.4c0,0.4,0.2,0.7,0.5,0.8C25,18.6,25.2,18.6,25.3,18.6z M25.3,18.6c0.4,0,0.6-0.2,0.8-0.5
			l0.7-1.5H29l0.7,1.5c0.2,0.3,0.4,0.5,0.8,0.5c0.1,0,0.3,0,0.4-0.1c0.3-0.2,0.5-0.4,0.5-0.8c0-0.1,0-0.3-0.1-0.4l-2.6-5.2
			c-0.2-0.3-0.4-0.5-0.8-0.5c-0.4,0-0.6,0.2-0.8,0.5l-2.6,5.2c-0.1,0.1-0.1,0.3-0.1,0.4c0,0.4,0.2,0.6,0.5,0.8
			C25,18.5,25.2,18.6,25.3,18.6z M24.9,18.1c0.1,0.1,0.2,0.2,0.4,0.2c0.2,0,0.4-0.1,0.5-0.3l0.8-1.7h2.6l0.8,1.7
			c0.1,0.2,0.2,0.3,0.5,0.3c0.1,0,0.3-0.1,0.4-0.2C31,18,31,17.8,31,17.7c0-0.1,0-0.2-0.1-0.2l-2.6-5.2C28.3,12,28.1,12,27.9,12
			c-0.2,0-0.4,0.1-0.5,0.3l-2.6,5.2c0,0.1-0.1,0.2-0.1,0.2C24.8,17.8,24.8,18,24.9,18.1z"/>
		<path d="M14.9,24.9c0.4-0.4,0.9-0.6,1.4-0.6c0.5,0,1,0.2,1.4,0.6l1.2,1.2l1.2-1.2c0.4-0.4,0.9-0.6,1.4-0.6c0.6,0,1,0.2,1.4,0.6
			c0.4,0.4,0.6,0.9,0.6,1.4s-0.2,1-0.6,1.4l-1.2,1.2l0.7,0.7c0.2,0.2,0.4,0.4,0.5,0.5v0c0.4,0.4,0.6,0.9,0.6,1.4
			c0,0.6-0.2,1-0.6,1.4c-0.4,0.4-0.9,0.6-1.4,0.6c-0.6,0-1-0.2-1.4-0.6l-1.2-1.2l-1.2,1.2c-0.4,0.4-0.9,0.6-1.4,0.6
			c-0.6,0-1-0.2-1.4-0.6c-0.4-0.4-0.6-0.9-0.6-1.4c0-0.6,0.2-1,0.6-1.4l1.2-1.2l-1.2-1.2c-0.4-0.4-0.6-0.9-0.6-1.4
			C14.3,25.7,14.5,25.3,14.9,24.9z M15.1,25.1c0.3-0.3,0.7-0.5,1.2-0.5c0.5,0,0.8,0.2,1.2,0.5l1.4,1.4l1.4-1.4
			c0.3-0.3,0.7-0.5,1.2-0.5s0.9,0.2,1.2,0.5c0.3,0.3,0.5,0.7,0.5,1.2c0,0.5-0.2,0.8-0.5,1.2l-1.4,1.4l1.4,1.4
			c0.3,0.3,0.5,0.7,0.5,1.2c0,0.5-0.2,0.9-0.5,1.2c-0.3,0.3-0.7,0.5-1.2,0.5s-0.9-0.2-1.2-0.5l-1.4-1.4l-1.4,1.4
			c-0.3,0.3-0.7,0.5-1.2,0.5c-0.5,0-0.9-0.2-1.2-0.5c-0.3-0.3-0.5-0.7-0.5-1.2c0-0.5,0.2-0.9,0.5-1.2l1.4-1.4l-1.4-1.4
			c-0.3-0.3-0.5-0.7-0.5-1.2C14.6,25.8,14.8,25.4,15.1,25.1z M15.2,25.2c0.3-0.3,0.7-0.5,1.1-0.5c0.4,0,0.8,0.2,1.1,0.5l1.5,1.5
			l1.5-1.5c0.3-0.3,0.7-0.5,1.1-0.5c0.4,0,0.8,0.2,1.1,0.5c0.3,0.3,0.5,0.7,0.5,1.1c0,0.4-0.2,0.8-0.5,1.1l-1.5,1.5l1.5,1.5
			c0.3,0.3,0.5,0.7,0.5,1.1c0,0.4-0.2,0.8-0.5,1.1c-0.3,0.3-0.7,0.5-1.1,0.5c-0.4,0-0.8-0.2-1.1-0.5l-1.5-1.5l-1.5,1.5
			c-0.3,0.3-0.7,0.5-1.1,0.5c-0.4,0-0.8-0.2-1.1-0.5c-0.3-0.3-0.5-0.7-0.5-1.1c0-0.4,0.2-0.8,0.5-1.1l1.5-1.5l-1.5-1.5
			c-0.3-0.3-0.5-0.7-0.5-1.1S14.9,25.5,15.2,25.2z M15.4,32.5c0.3,0.3,0.6,0.4,0.9,0.4c0.4,0,0.7-0.1,0.9-0.4l1.7-1.7l1.7,1.7
			c0.3,0.3,0.6,0.4,0.9,0.4c0.4,0,0.7-0.1,0.9-0.4c0.3-0.3,0.4-0.6,0.4-0.9c0-0.4-0.1-0.7-0.4-0.9l-1.7-1.7l1.7-1.7
			c0.3-0.3,0.4-0.6,0.4-0.9c0-0.4-0.1-0.7-0.4-0.9c-0.3-0.3-0.6-0.4-0.9-0.4c-0.4,0-0.7,0.1-0.9,0.4L18.9,27l-1.7-1.7
			C17,25.1,16.7,25,16.3,25c-0.4,0-0.7,0.1-1,0.4c-0.3,0.3-0.4,0.6-0.4,0.9c0,0.4,0.1,0.7,0.4,0.9l1.7,1.7l-1.7,1.7
			c-0.3,0.3-0.4,0.6-0.4,0.9C15,31.9,15.1,32.2,15.4,32.5z M20.7,28.9l1.7-1.7c0.2-0.2,0.4-0.5,0.4-0.9c0-0.3-0.1-0.6-0.4-0.9
			c-0.2-0.2-0.5-0.4-0.9-0.4c-0.4,0-0.7,0.1-0.9,0.4l-1.7,1.7l-1.7-1.7c-0.2-0.2-0.5-0.4-0.9-0.4c-0.4,0-0.7,0.1-0.9,0.4
			C15.2,25.7,15,26,15,26.3c0,0.3,0.1,0.6,0.4,0.9l1.7,1.7l-1.7,1.7c-0.2,0.2-0.4,0.5-0.4,0.9c0,0.4,0.1,0.7,0.4,0.9
			c0.2,0.2,0.5,0.4,0.9,0.4c0.3,0,0.6-0.1,0.9-0.4l1.7-1.7l1.7,1.7c0.2,0.2,0.5,0.4,0.9,0.4c0.4,0,0.7-0.1,0.9-0.4
			c0.2-0.2,0.4-0.5,0.4-0.9c0-0.3-0.1-0.6-0.4-0.9L20.7,28.9z M15.5,25.5c0.2-0.2,0.5-0.3,0.9-0.3c0.3,0,0.6,0.1,0.8,0.3l1.8,1.8
			l1.8-1.8c0.2-0.2,0.5-0.3,0.8-0.3c0.3,0,0.6,0.1,0.8,0.4c0.2,0.2,0.4,0.5,0.4,0.8s-0.1,0.6-0.3,0.8l-1.8,1.8l1.8,1.8
			c0.2,0.2,0.3,0.5,0.3,0.8c0,0.3-0.1,0.6-0.4,0.8c-0.2,0.2-0.5,0.4-0.8,0.4c-0.3,0-0.6-0.1-0.8-0.3l-1.8-1.8l-1.8,1.8
			c-0.2,0.2-0.5,0.3-0.8,0.3c-0.3,0-0.6-0.1-0.8-0.4c-0.2-0.2-0.4-0.5-0.4-0.8c0-0.3,0.1-0.6,0.3-0.8l1.8-1.8l-1.8-1.8
			c-0.2-0.2-0.3-0.5-0.3-0.8C15.1,26,15.2,25.7,15.5,25.5z M15.7,32.2c0.2,0.2,0.4,0.3,0.7,0.3c0.3,0,0.5-0.1,0.7-0.3l1.9-1.9
			l1.9,1.9c0.2,0.2,0.4,0.3,0.7,0.3c0.3,0,0.5-0.1,0.7-0.3c0.2-0.2,0.3-0.4,0.3-0.7c0-0.3-0.1-0.5-0.3-0.7l-1.9-1.9l1.9-1.9
			c0.2-0.2,0.3-0.4,0.3-0.7c0-0.3-0.1-0.5-0.3-0.7c-0.2-0.2-0.4-0.3-0.7-0.3c-0.3,0-0.5,0.1-0.7,0.3l-1.9,1.9L17,25.7
			c-0.2-0.2-0.4-0.3-0.7-0.3c-0.3,0-0.5,0.1-0.7,0.3c-0.2,0.2-0.3,0.4-0.3,0.7c0,0.3,0.1,0.5,0.3,0.7l1.9,1.9l-1.9,1.9
			c-0.2,0.2-0.3,0.4-0.3,0.7C15.4,31.8,15.5,32,15.7,32.2z M15.7,32.1c0.2,0.2,0.4,0.3,0.6,0.3c0.2,0,0.4-0.1,0.6-0.3l2-2l2,2
			c0.2,0.2,0.4,0.3,0.6,0.3c0.2,0,0.4-0.1,0.6-0.3c0.2-0.2,0.3-0.4,0.3-0.6c0-0.2-0.1-0.4-0.3-0.6l-2-2l2-2c0.2-0.2,0.3-0.4,0.3-0.6
			c0-0.2-0.1-0.4-0.3-0.6c-0.2-0.2-0.4-0.3-0.6-0.3c-0.2,0-0.4,0.1-0.6,0.3l-2,2l-2-2c-0.2-0.2-0.4-0.2-0.6-0.3
			c-0.2,0-0.4,0.1-0.6,0.3c-0.2,0.2-0.3,0.4-0.3,0.6c0,0.2,0.1,0.4,0.3,0.6l2,2l-2,2c-0.2,0.2-0.3,0.4-0.3,0.6
			C15.4,31.8,15.5,32,15.7,32.1z M15.9,31.9c0.1,0.1,0.2,0.2,0.4,0.2c0.1,0,0.3,0,0.4-0.2l2.2-2.2l2.2,2.2c0.1,0.1,0.2,0.2,0.4,0.2
			c0.1,0,0.3-0.1,0.4-0.2c0.1-0.1,0.1-0.2,0.1-0.4c0-0.1,0-0.3-0.1-0.4l-2.2-2.2l2.2-2.2c0.1-0.1,0.1-0.2,0.1-0.4
			c0-0.1,0-0.3-0.1-0.4c-0.1-0.1-0.2-0.2-0.4-0.2c-0.1,0-0.3,0.1-0.4,0.2l-2.2,2.2l-2.2-2.2c-0.1-0.1-0.2-0.1-0.4-0.2
			c-0.1,0-0.3,0.1-0.4,0.2c-0.1,0.1-0.2,0.2-0.2,0.4c0,0.1,0,0.3,0.1,0.4l2.2,2.2l-2.2,2.2c-0.1,0.1-0.1,0.2-0.1,0.4
			C15.8,31.7,15.8,31.8,15.9,31.9z"/>
		<path d="M28.4,24.3c0.6,0,1,0.2,1.4,0.6s0.6,0.9,0.6,1.4v0.3c0,0.1,0,0.3-0.1,0.5c0,0.2,0.1,0.3,0.1,0.5v3.9c0,0.6-0.2,1-0.6,1.4
			c-0.4,0.4-0.9,0.6-1.4,0.6c-0.6,0-1-0.2-1.4-0.6c-0.4-0.4-0.6-0.9-0.6-1.4v-3.9c0-0.1,0-0.3,0.1-0.5c0-0.2-0.1-0.3-0.1-0.5v-0.3
			c0-0.6,0.2-1,0.6-1.4C27.4,24.5,27.8,24.3,28.4,24.3z M27.2,25.1c0.3-0.3,0.7-0.5,1.2-0.5s0.9,0.2,1.2,0.5
			c0.3,0.3,0.5,0.7,0.5,1.2v0.3c0,0.2,0,0.3-0.1,0.5c0.1,0.2,0.1,0.3,0.1,0.5v3.9c0,0.5-0.2,0.9-0.5,1.2c-0.3,0.3-0.7,0.5-1.2,0.5
			s-0.9-0.2-1.2-0.5c-0.3-0.3-0.5-0.7-0.5-1.2v-3.9c0-0.2,0-0.3,0.1-0.5c-0.1-0.2-0.1-0.3-0.1-0.5v-0.3
			C26.7,25.9,26.9,25.5,27.2,25.1z M27.3,25.2c0.3-0.3,0.7-0.5,1.1-0.5s0.8,0.2,1.1,0.5c0.3,0.3,0.5,0.7,0.5,1.1v0.3
			c0,0.2,0,0.3-0.1,0.5c0.1,0.2,0.1,0.3,0.1,0.5v3.9c0,0.4-0.2,0.8-0.5,1.1c-0.3,0.3-0.7,0.5-1.1,0.5s-0.8-0.2-1.1-0.5
			c-0.3-0.3-0.5-0.7-0.5-1.1v-3.9c0-0.2,0-0.3,0.1-0.5c-0.1-0.2-0.1-0.3-0.1-0.5v-0.3C26.8,25.9,26.9,25.5,27.3,25.2z M27.4,25.4
			c-0.3,0.3-0.4,0.6-0.4,0.9v0.3c0,0.1,0,0.3,0.1,0.4l0,0.1l0,0.1c0,0.1-0.1,0.3-0.1,0.4v3.9c0,0.4,0.1,0.7,0.4,0.9
			c0.3,0.3,0.6,0.4,0.9,0.4c0.4,0,0.7-0.1,0.9-0.4c0.3-0.3,0.4-0.6,0.4-0.9v-3.9c0-0.1,0-0.2-0.1-0.4l0-0.1l0-0.1
			c0-0.2,0.1-0.3,0.1-0.4v-0.3c0-0.4-0.1-0.7-0.4-0.9c-0.3-0.3-0.6-0.4-0.9-0.4C28,25,27.7,25.1,27.4,25.4z M29.7,26.3
			c0-0.4-0.1-0.7-0.4-0.9C29,25.2,28.7,25,28.4,25s-0.7,0.1-0.9,0.4c-0.2,0.2-0.4,0.5-0.4,0.9v0.3c0,0.2,0,0.3,0.1,0.5
			c-0.1,0.2-0.1,0.3-0.1,0.5v3.9c0,0.4,0.1,0.7,0.4,0.9c0.2,0.2,0.5,0.4,0.9,0.4s0.7-0.1,0.9-0.4c0.2-0.2,0.4-0.5,0.4-0.9v-3.9
			c0-0.2,0-0.3-0.1-0.5c0.1-0.2,0.1-0.3,0.1-0.5V26.3z M27.5,25.5c0.2-0.2,0.5-0.4,0.8-0.4s0.6,0.1,0.8,0.4c0.2,0.2,0.4,0.5,0.4,0.8
			v0.3c0,0.1,0,0.2-0.1,0.3c0,0.1-0.1,0.2-0.1,0.2l0,0c0.1,0.1,0.1,0.3,0.1,0.5v3.9c0,0.3-0.1,0.6-0.4,0.8c-0.2,0.2-0.5,0.4-0.8,0.4
			s-0.6-0.1-0.8-0.4c-0.2-0.2-0.4-0.5-0.4-0.8v-3.9c0-0.2,0-0.3,0.1-0.5l0,0l0,0c-0.1-0.2-0.1-0.3-0.1-0.5v-0.3
			C27.2,26,27.3,25.7,27.5,25.5z M27.7,32.2c0.2,0.2,0.4,0.3,0.7,0.3c0.3,0,0.5-0.1,0.7-0.3c0.2-0.2,0.3-0.4,0.3-0.7v-3.9
			c0-0.1,0-0.3-0.1-0.4l-0.1-0.1l0.1-0.1c0-0.1,0.1-0.2,0.1-0.4v-0.3c0-0.3-0.1-0.5-0.3-0.7c-0.2-0.2-0.4-0.3-0.7-0.3
			c-0.3,0-0.5,0.1-0.7,0.3c-0.2,0.2-0.3,0.4-0.3,0.7v0.3c0,0.1,0,0.2,0.1,0.4l0.1,0.1l-0.1,0.1c0,0.1-0.1,0.2-0.1,0.4v3.9
			C27.5,31.8,27.5,32,27.7,32.2z M27.8,32.1c0.2,0.2,0.4,0.3,0.6,0.3c0.2,0,0.4-0.1,0.6-0.3c0.2-0.2,0.3-0.4,0.3-0.6v-3.9
			c0-0.1,0-0.2-0.1-0.3l-0.1-0.2l0.1-0.2c0-0.1,0.1-0.2,0.1-0.3v-0.3c0-0.2-0.1-0.4-0.3-0.6c-0.2-0.2-0.4-0.3-0.6-0.3
			c-0.2,0-0.4,0.1-0.6,0.3c-0.2,0.2-0.3,0.4-0.3,0.6v0.3c0,0.1,0,0.2,0.1,0.3l0.1,0.2l-0.1,0.2c0,0.1-0.1,0.2-0.1,0.3v3.9
			C27.5,31.8,27.6,32,27.8,32.1z M28.4,32.1c0.1,0,0.3-0.1,0.4-0.2c0.1-0.1,0.2-0.2,0.2-0.4v-3.9c0-0.1,0-0.1,0-0.2l-0.1-0.3
			l0.1-0.3c0-0.1,0-0.1,0-0.2v-0.3c0-0.1-0.1-0.3-0.2-0.4c-0.1-0.1-0.2-0.2-0.4-0.2s-0.3,0.1-0.4,0.2c-0.1,0.1-0.2,0.2-0.2,0.4v0.3
			c0,0.1,0,0.1,0,0.2l0.1,0.3l-0.1,0.3c0,0.1,0,0.1,0,0.2v3.9c0,0.1,0.1,0.3,0.2,0.4C28.1,32,28.2,32.1,28.4,32.1z"/>
	</g>
	<rect x="4" y="19.5" class="st10" width="5.5" height="5.1"/>
	<rect x="36" y="19.5" class="st10" width="5.5" height="5.1"/>
</g>
</svg>
